<?xml version="1.0" encoding="UTF-8"?>
<!-- Lightworks version 14.5.0.0 -->
<xmeml version="5">
   <sequence id="E30R21M4">
      <name>Sequence #1</name>
      <duration>7500</duration>
      <rate>
         <ntsc>FALSE</ntsc>
         <timebase>25</timebase>
      </rate>
      <timecode>
         <rate>
            <ntsc>FALSE</ntsc>
            <timebase>25</timebase>
         </rate>
         <string> 00:00:00.00</string>
         <frame>0</frame>
         <source>source</source>
         <displayformat>NDF</displayformat>
      </timecode>
      <media>
         <format>
            <samplecharacteristics>
               <width>1920</width>
               <height>1080</height>
            </samplecharacteristics>
         </format>
         <video>
            <track>
               <clipitem>
                  <name>out25</name>
                  <duration>209</duration>
                  <rate>
                     <ntsc>FALSE</ntsc>
                     <timebase>25</timebase>
                  </rate>
                  <in>0</in>
                  <out>207</out>
                  <start>0</start>
                  <end>207</end>
                  <masterclipid>E30R21AU</masterclipid>
                  <file id="E30R21AU">
                     <name>out25</name>
                     <pathurl>file://localhost/tmp/final/2/out25.mp4</pathurl>
                     <rate>
                        <ntsc>FALSE</ntsc>
                        <timebase>25</timebase>
                     </rate>
                     <duration>209</duration>
                     <timecode>
                        <rate>
                           <ntsc>FALSE</ntsc>
                           <timebase>25</timebase>
                        </rate>
                        <string> 00:00:00.00</string>
                        <frame>0</frame>
                        <source>source</source>
                        <displayformat>NDF</displayformat>
                        <reel>
                           <name>out25</name>
                        </reel>
                     </timecode>
                     <media>
                        <video>
                           <duration>209</duration>
                           <samplecharacteristics>
                              <width></width>
                              <height></height>
                           </samplecharacteristics>
                        </video>
                     </media>
                  </file>
                  <sourcetrack>
                     <mediatype>video</mediatype>
                  </sourcetrack>
               </clipitem>
               <clipitem>
                  <name>out25</name>
                  <duration>209</duration>
                  <rate>
                     <ntsc>FALSE</ntsc>
                     <timebase>25</timebase>
                  </rate>
                  <in>207</in>
                  <out>209</out>
                  <start>207</start>
                  <end>209</end>
                  <masterclipid>E30R21AU</masterclipid>
                  <file id="E30R21AU">
                  </file>
                  <sourcetrack>
                     <mediatype>video</mediatype>
                  </sourcetrack>
               </clipitem>
               <clipitem>
                  <name>out25</name>
                  <duration>209</duration>
                  <rate>
                     <ntsc>FALSE</ntsc>
                     <timebase>25</timebase>
                  </rate>
                  <in>207</in>
                  <out>209</out>
                  <start>226</start>
                  <end>228</end>
                  <masterclipid>E30R21AU</masterclipid>
                  <file id="E30R21AU">
                  </file>
                  <sourcetrack>
                     <mediatype>video</mediatype>
                  </sourcetrack>
               </clipitem>
            </track>
            <track>
            </track>
            <track>
            </track>
         </video>
         <audio>
            <track>
               <clipitem>
                  <name>exhale-sigh_fkHQMu4d</name>
                  <duration>30</duration>
                  <rate>
                     <ntsc>FALSE</ntsc>
                     <timebase>25</timebase>
                  </rate>
                  <in>0</in>
                  <out>30</out>
                  <start>19</start>
                  <end>49</end>
                  <masterclipid>E30R21CH</masterclipid>
                  <file id="E30R21CH">
                     <name>exhale-sigh_fkHQMu4d</name>
                     <pathurl>file://localhost/tmp/final/2/exhale-sigh_fkHQMu4d.wav</pathurl>
                     <rate>
                        <ntsc>FALSE</ntsc>
                        <timebase>25</timebase>
                     </rate>
                     <duration>30</duration>
                     <timecode>
                        <rate>
                           <ntsc>FALSE</ntsc>
                           <timebase>25</timebase>
                        </rate>
                        <string> 00:00:00.00</string>
                        <frame>0</frame>
                        <source>source</source>
                        <displayformat>NDF</displayformat>
                        <reel>
                           <name>exhale-sigh_fkHQMu4d</name>
                        </reel>
                     </timecode>
                     <media>
                        <video>
                           <duration>30</duration>
                           <samplecharacteristics>
                              <width>720</width>
                              <height>576</height>
                           </samplecharacteristics>
                        </video>
                        <audio>
                           <channelcount>2</channelcount>
                        </audio>
                     </media>
                  </file>
                  <filter>
                     <effect>
                        <name>Audio Levels</name>
                        <effectid>audiolevels</effectid>
                        <effectcategory>audiolevels</effectcategory>
                        <effecttype>audiolevels</effecttype>
                        <mediatype>audio</mediatype>
                        <parameter>
                           <name>Level</name>
                           <parameterid>level</parameterid>
                           <keyframe>
                              <when>0</when>
                              <value>1.00000000</value>
                           </keyframe>
                           <keyframe>
                              <when>30</when>
                              <value>1.00000000</value>
                           </keyframe>
                           <keyframe>
                              <when>30</when>
                              <value>1.00000000</value>
                           </keyframe>
                        </parameter>
                     </effect>
                  </filter>
                  <sourcetrack>
                     <mediatype>audio</mediatype>
                     <trackindex>1</trackindex>
                  </sourcetrack>
               </clipitem>
               <clipitem>
                  <name>exhale-sigh_fkHQMu4d</name>
                  <duration>30</duration>
                  <rate>
                     <ntsc>FALSE</ntsc>
                     <timebase>25</timebase>
                  </rate>
                  <in>0</in>
                  <out>30</out>
                  <start>55</start>
                  <end>85</end>
                  <masterclipid>E30R21CH</masterclipid>
                  <file id="E30R21CH">
                  </file>
                  <filter>
                     <effect>
                        <name>Audio Levels</name>
                        <effectid>audiolevels</effectid>
                        <effectcategory>audiolevels</effectcategory>
                        <effecttype>audiolevels</effecttype>
                        <mediatype>audio</mediatype>
                        <parameter>
                           <name>Level</name>
                           <parameterid>level</parameterid>
                           <keyframe>
                              <when>0</when>
                              <value>1.00000000</value>
                           </keyframe>
                           <keyframe>
                              <when>30</when>
                              <value>1.00000000</value>
                           </keyframe>
                           <keyframe>
                              <when>30</when>
                              <value>1.00000000</value>
                           </keyframe>
                        </parameter>
                     </effect>
                  </filter>
                  <sourcetrack>
                     <mediatype>audio</mediatype>
                     <trackindex>1</trackindex>
                  </sourcetrack>
               </clipitem>
               <clipitem>
                  <name>crunches_G1YX02Vu</name>
                  <duration>58</duration>
                  <rate>
                     <ntsc>FALSE</ntsc>
                     <timebase>25</timebase>
                  </rate>
                  <in>0</in>
                  <out>58</out>
                  <start>143</start>
                  <end>201</end>
                  <masterclipid>E30R21FE</masterclipid>
                  <file id="E30R21FE">
                     <name>crunches_G1YX02Vu</name>
                     <pathurl>file://localhost/tmp/final/2/crunches_G1YX02Vu.wav</pathurl>
                     <rate>
                        <ntsc>FALSE</ntsc>
                        <timebase>25</timebase>
                     </rate>
                     <duration>58</duration>
                     <timecode>
                        <rate>
                           <ntsc>FALSE</ntsc>
                           <timebase>25</timebase>
                        </rate>
                        <string> 00:00:00.00</string>
                        <frame>0</frame>
                        <source>source</source>
                        <displayformat>NDF</displayformat>
                        <reel>
                           <name>crunches_G1YX02Vu</name>
                        </reel>
                     </timecode>
                     <media>
                        <video>
                           <duration>58</duration>
                           <samplecharacteristics>
                              <width>720</width>
                              <height>576</height>
                           </samplecharacteristics>
                        </video>
                        <audio>
                           <channelcount>2</channelcount>
                        </audio>
                     </media>
                  </file>
                  <filter>
                     <effect>
                        <name>Audio Levels</name>
                        <effectid>audiolevels</effectid>
                        <effectcategory>audiolevels</effectcategory>
                        <effecttype>audiolevels</effecttype>
                        <mediatype>audio</mediatype>
                        <parameter>
                           <name>Level</name>
                           <parameterid>level</parameterid>
                           <keyframe>
                              <when>0</when>
                              <value>1.00000000</value>
                           </keyframe>
                           <keyframe>
                              <when>58</when>
                              <value>1.00000000</value>
                           </keyframe>
                           <keyframe>
                              <when>58</when>
                              <value>1.00000000</value>
                           </keyframe>
                        </parameter>
                     </effect>
                  </filter>
                  <sourcetrack>
                     <mediatype>audio</mediatype>
                     <trackindex>1</trackindex>
                  </sourcetrack>
               </clipitem>
            </track>
            <track>
               <clipitem>
                  <name>exhale-sigh_fkHQMu4d</name>
                  <duration>30</duration>
                  <rate>
                     <ntsc>FALSE</ntsc>
                     <timebase>25</timebase>
                  </rate>
                  <in>0</in>
                  <out>30</out>
                  <start>19</start>
                  <end>49</end>
                  <masterclipid>E30R21CH</masterclipid>
                  <file id="E30R21CH">
                  </file>
                  <filter>
                     <effect>
                        <name>Audio Levels</name>
                        <effectid>audiolevels</effectid>
                        <effectcategory>audiolevels</effectcategory>
                        <effecttype>audiolevels</effecttype>
                        <mediatype>audio</mediatype>
                        <parameter>
                           <name>Level</name>
                           <parameterid>level</parameterid>
                           <keyframe>
                              <when>0</when>
                              <value>1.00000000</value>
                           </keyframe>
                           <keyframe>
                              <when>30</when>
                              <value>1.00000000</value>
                           </keyframe>
                           <keyframe>
                              <when>30</when>
                              <value>1.00000000</value>
                           </keyframe>
                        </parameter>
                     </effect>
                  </filter>
                  <sourcetrack>
                     <mediatype>audio</mediatype>
                     <trackindex>2</trackindex>
                  </sourcetrack>
               </clipitem>
               <clipitem>
                  <name>exhale-sigh_fkHQMu4d</name>
                  <duration>30</duration>
                  <rate>
                     <ntsc>FALSE</ntsc>
                     <timebase>25</timebase>
                  </rate>
                  <in>0</in>
                  <out>30</out>
                  <start>55</start>
                  <end>85</end>
                  <masterclipid>E30R21CH</masterclipid>
                  <file id="E30R21CH">
                  </file>
                  <filter>
                     <effect>
                        <name>Audio Levels</name>
                        <effectid>audiolevels</effectid>
                        <effectcategory>audiolevels</effectcategory>
                        <effecttype>audiolevels</effecttype>
                        <mediatype>audio</mediatype>
                        <parameter>
                           <name>Level</name>
                           <parameterid>level</parameterid>
                           <keyframe>
                              <when>0</when>
                              <value>1.00000000</value>
                           </keyframe>
                           <keyframe>
                              <when>30</when>
                              <value>1.00000000</value>
                           </keyframe>
                           <keyframe>
                              <when>30</when>
                              <value>1.00000000</value>
                           </keyframe>
                        </parameter>
                     </effect>
                  </filter>
                  <sourcetrack>
                     <mediatype>audio</mediatype>
                     <trackindex>2</trackindex>
                  </sourcetrack>
               </clipitem>
               <clipitem>
                  <name>crunches_G1YX02Vu</name>
                  <duration>58</duration>
                  <rate>
                     <ntsc>FALSE</ntsc>
                     <timebase>25</timebase>
                  </rate>
                  <in>0</in>
                  <out>58</out>
                  <start>143</start>
                  <end>201</end>
                  <masterclipid>E30R21FE</masterclipid>
                  <file id="E30R21FE">
                  </file>
                  <filter>
                     <effect>
                        <name>Audio Levels</name>
                        <effectid>audiolevels</effectid>
                        <effectcategory>audiolevels</effectcategory>
                        <effecttype>audiolevels</effecttype>
                        <mediatype>audio</mediatype>
                        <parameter>
                           <name>Level</name>
                           <parameterid>level</parameterid>
                           <keyframe>
                              <when>0</when>
                              <value>1.00000000</value>
                           </keyframe>
                           <keyframe>
                              <when>58</when>
                              <value>1.00000000</value>
                           </keyframe>
                           <keyframe>
                              <when>58</when>
                              <value>1.00000000</value>
                           </keyframe>
                        </parameter>
                     </effect>
                  </filter>
                  <sourcetrack>
                     <mediatype>audio</mediatype>
                     <trackindex>2</trackindex>
                  </sourcetrack>
               </clipitem>
            </track>
            <track>
               <clipitem>
                  <name>jg-032316-sfx-footsteps-casual-shoes-on-rocks</name>
                  <duration>415</duration>
                  <rate>
                     <ntsc>FALSE</ntsc>
                     <timebase>25</timebase>
                  </rate>
                  <in>0</in>
                  <out>105</out>
                  <start>46</start>
                  <end>151</end>
                  <masterclipid>E30R21E8</masterclipid>
                  <file id="E30R21E8">
                     <name>jg-032316-sfx-footsteps-casual-shoes-on-rocks</name>
                     <pathurl>file://localhost/tmp/final/2/jg-032316-sfx-footsteps-casual-shoes-on-rocks.wav</pathurl>
                     <rate>
                        <ntsc>FALSE</ntsc>
                        <timebase>25</timebase>
                     </rate>
                     <duration>415</duration>
                     <timecode>
                        <rate>
                           <ntsc>FALSE</ntsc>
                           <timebase>25</timebase>
                        </rate>
                        <string> 00:00:00.00</string>
                        <frame>0</frame>
                        <source>source</source>
                        <displayformat>NDF</displayformat>
                        <reel>
                           <name>jg-032316-sfx-footsteps-casual-shoes-on-rocks</name>
                        </reel>
                     </timecode>
                     <media>
                        <video>
                           <duration>415</duration>
                           <samplecharacteristics>
                              <width>720</width>
                              <height>576</height>
                           </samplecharacteristics>
                        </video>
                        <audio>
                           <channelcount>2</channelcount>
                        </audio>
                     </media>
                  </file>
                  <filter>
                     <effect>
                        <name>Audio Levels</name>
                        <effectid>audiolevels</effectid>
                        <effectcategory>audiolevels</effectcategory>
                        <effecttype>audiolevels</effecttype>
                        <mediatype>audio</mediatype>
                        <parameter>
                           <name>Level</name>
                           <parameterid>level</parameterid>
                           <keyframe>
                              <when>0</when>
                              <value>1.00000000</value>
                           </keyframe>
                           <keyframe>
                              <when>64</when>
                              <value>1.00000000</value>
                           </keyframe>
                           <keyframe>
                              <when>97</when>
                              <value>1.00000000</value>
                           </keyframe>
                           <keyframe>
                              <when>103</when>
                              <value>0.00000000</value>
                           </keyframe>
                           <keyframe>
                              <when>105</when>
                              <value>0.00000000</value>
                           </keyframe>
                           <keyframe>
                              <when>105</when>
                              <value>1.00000000</value>
                           </keyframe>
                        </parameter>
                     </effect>
                  </filter>
                  <sourcetrack>
                     <mediatype>audio</mediatype>
                     <trackindex>1</trackindex>
                  </sourcetrack>
               </clipitem>
               <clipitem>
                  <name>glass-clink-1_GJ0Xp-VO</name>
                  <duration>44</duration>
                  <rate>
                     <ntsc>FALSE</ntsc>
                     <timebase>25</timebase>
                  </rate>
                  <in>0</in>
                  <out>44</out>
                  <start>192</start>
                  <end>236</end>
                  <masterclipid>E30R21G6</masterclipid>
                  <file id="E30R21G6">
                     <name>glass-clink-1_GJ0Xp-VO</name>
                     <pathurl>file://localhost/tmp/final/2/glass-clink-1_GJ0Xp-VO.wav</pathurl>
                     <rate>
                        <ntsc>FALSE</ntsc>
                        <timebase>25</timebase>
                     </rate>
                     <duration>44</duration>
                     <timecode>
                        <rate>
                           <ntsc>FALSE</ntsc>
                           <timebase>25</timebase>
                        </rate>
                        <string> 00:00:00.00</string>
                        <frame>0</frame>
                        <source>source</source>
                        <displayformat>NDF</displayformat>
                        <reel>
                           <name>glass-clink-1_GJ0Xp-VO</name>
                        </reel>
                     </timecode>
                     <media>
                        <video>
                           <duration>44</duration>
                           <samplecharacteristics>
                              <width>720</width>
                              <height>576</height>
                           </samplecharacteristics>
                        </video>
                        <audio>
                           <channelcount>2</channelcount>
                        </audio>
                     </media>
                  </file>
                  <filter>
                     <effect>
                        <name>Audio Levels</name>
                        <effectid>audiolevels</effectid>
                        <effectcategory>audiolevels</effectcategory>
                        <effecttype>audiolevels</effecttype>
                        <mediatype>audio</mediatype>
                        <parameter>
                           <name>Level</name>
                           <parameterid>level</parameterid>
                           <keyframe>
                              <when>0</when>
                              <value>1.00000000</value>
                           </keyframe>
                           <keyframe>
                              <when>44</when>
                              <value>1.00000000</value>
                           </keyframe>
                           <keyframe>
                              <when>44</when>
                              <value>1.00000000</value>
                           </keyframe>
                        </parameter>
                     </effect>
                  </filter>
                  <sourcetrack>
                     <mediatype>audio</mediatype>
                     <trackindex>1</trackindex>
                  </sourcetrack>
               </clipitem>
            </track>
            <track>
               <clipitem>
                  <name>jg-032316-sfx-footsteps-casual-shoes-on-rocks</name>
                  <duration>415</duration>
                  <rate>
                     <ntsc>FALSE</ntsc>
                     <timebase>25</timebase>
                  </rate>
                  <in>0</in>
                  <out>105</out>
                  <start>46</start>
                  <end>151</end>
                  <masterclipid>E30R21E8</masterclipid>
                  <file id="E30R21E8">
                  </file>
                  <filter>
                     <effect>
                        <name>Audio Levels</name>
                        <effectid>audiolevels</effectid>
                        <effectcategory>audiolevels</effectcategory>
                        <effecttype>audiolevels</effecttype>
                        <mediatype>audio</mediatype>
                        <parameter>
                           <name>Level</name>
                           <parameterid>level</parameterid>
                           <keyframe>
                              <when>0</when>
                              <value>1.00000000</value>
                           </keyframe>
                           <keyframe>
                              <when>64</when>
                              <value>1.00000000</value>
                           </keyframe>
                           <keyframe>
                              <when>97</when>
                              <value>1.00000000</value>
                           </keyframe>
                           <keyframe>
                              <when>103</when>
                              <value>0.00000000</value>
                           </keyframe>
                           <keyframe>
                              <when>105</when>
                              <value>0.00000000</value>
                           </keyframe>
                           <keyframe>
                              <when>105</when>
                              <value>1.00000000</value>
                           </keyframe>
                        </parameter>
                     </effect>
                  </filter>
                  <sourcetrack>
                     <mediatype>audio</mediatype>
                     <trackindex>2</trackindex>
                  </sourcetrack>
               </clipitem>
               <clipitem>
                  <name>glass-clink-1_GJ0Xp-VO</name>
                  <duration>44</duration>
                  <rate>
                     <ntsc>FALSE</ntsc>
                     <timebase>25</timebase>
                  </rate>
                  <in>0</in>
                  <out>44</out>
                  <start>192</start>
                  <end>236</end>
                  <masterclipid>E30R21G6</masterclipid>
                  <file id="E30R21G6">
                  </file>
                  <filter>
                     <effect>
                        <name>Audio Levels</name>
                        <effectid>audiolevels</effectid>
                        <effectcategory>audiolevels</effectcategory>
                        <effecttype>audiolevels</effecttype>
                        <mediatype>audio</mediatype>
                        <parameter>
                           <name>Level</name>
                           <parameterid>level</parameterid>
                           <keyframe>
                              <when>0</when>
                              <value>1.00000000</value>
                           </keyframe>
                           <keyframe>
                              <when>44</when>
                              <value>1.00000000</value>
                           </keyframe>
                           <keyframe>
                              <when>44</when>
                              <value>1.00000000</value>
                           </keyframe>
                        </parameter>
                     </effect>
                  </filter>
                  <sourcetrack>
                     <mediatype>audio</mediatype>
                     <trackindex>2</trackindex>
                  </sourcetrack>
               </clipitem>
            </track>
            <track>
            </track>
         </audio>
      </media>
   </sequence>
</xmeml>